<svg width="1920" height="1080" viewBox="0 0 1920 1080" fill="none" xmlns="http://www.w3.org/2000/svg">
<g clip-path="url(#clip0_163_435)">
<rect width="1920" height="1080" fill="#2C357D"/>
<path d="M95.5811 763.033C95.5811 763.033 78.4893 780.08 57.8423 800.546C32.3532 825.783 1.51044 856.235 -9.07647 866.149C-28.2262 884.097 -54.4075 905.392 -54.4075 905.392C-55.5851 892.217 -26.4278 844.719 -25.5287 843.267C-92.1276 888.827 -130.442 947.375 -130.442 947.375V910.881C-130.442 910.881 -175.473 963.801 -228.392 974.76C-281.335 985.716 -335.476 966.246 -335.476 966.246L-261.265 918.77C-336.906 940.41 -381.728 883.8 -382.905 882.3C-382.927 882.276 -382.927 882.276 -382.927 882.276H-275.868C-318.89 870.628 -417 825.088 -417 825.088C-325.741 832.378 -99.415 789.493 -99.415 789.493L48.4329 713.74L95.5811 763.033Z" fill="white"/>
<path d="M57.8417 800.546C32.3527 825.783 1.50992 856.235 -9.07698 866.149C-28.2267 884.097 -54.408 905.392 -54.408 905.392C-55.5856 892.217 -26.4284 844.719 -25.5292 843.267C-92.1281 888.827 -130.443 947.375 -130.443 947.375V910.881C-130.443 910.881 -175.473 963.801 -228.393 974.76C-281.335 985.716 -335.476 966.246 -335.476 966.246L-261.265 918.77C-336.906 940.41 -381.728 883.8 -382.905 882.3C-381.453 883.221 -316.261 924.377 -230.838 882.277C-230.838 882.277 -229.615 903.198 -242.994 918.285C-242.994 918.285 -224.748 916.117 -213.789 907.097C-213.789 907.097 -217.873 932.842 -234.112 946.152C-207.7 931.713 -145.76 895.309 -109.152 853.071V889.564C-109.152 889.564 -29.931 832.608 -19.1146 814.132V842.115C-19.1146 842.115 16.4121 814.688 57.8417 800.546Z" fill="#F0F0EF"/>
<path d="M483.064 882.179C483.064 882.179 581.8 935.241 587.003 935.76C587.003 935.76 617.673 877.778 624.569 878.386C631.465 878.991 664.253 891.648 664.253 891.648C664.253 891.648 657.496 909.477 630.66 895.948C630.66 895.948 608.67 920.136 602.413 938.868L610.295 945.869C610.295 945.869 652.729 918.845 662.105 917.807C671.484 916.761 698.542 934.458 698.542 934.458C698.542 934.458 690.829 952.25 661.857 933.645C661.857 933.645 583.012 980.252 573.644 986.501C564.276 992.747 556.992 1034.38 556.992 1034.38C556.992 1034.38 580.931 1033.34 579.889 1055.19C579.889 1055.19 532.011 1056.68 527.85 1046.05C523.685 1035.42 558.757 970.915 569.167 961.546L459.592 908.612L483.064 882.179Z" fill="black"/>
<path d="M406.965 746.476C406.965 746.476 428.319 776.291 447.149 823.744C465.979 871.197 542.638 900.403 542.638 900.403C542.638 900.403 520.129 907.093 500.659 904.662L543.248 938.729L488.489 922.913L510.697 953.33C510.697 953.33 459.35 922.913 447.149 910.746C434.948 898.579 214.102 748.827 79.9485 837.435C79.9485 837.435 106.416 793.932 122.232 778.112L71.1261 772.029C93.0297 762.296 115.543 738.06 115.543 738.06C115.543 738.06 55.3097 749.82 -10.4014 760.776C-10.4014 760.776 59.2901 720.437 110.065 661.769C110.065 661.769 326.826 635.603 406.965 746.476Z" fill="#272727"/>
<path d="M653.176 887.671C653.176 887.671 657.341 894.836 664.252 891.648C671.159 888.457 678.868 887.661 679.135 896.964C679.135 896.964 686.648 884.331 670.629 882.344C660.264 881.058 653.176 887.671 653.176 887.671Z" fill="black"/>
<path d="M689.084 928.679C689.084 928.679 693.275 936.746 700.186 933.555C707.098 930.365 714.802 929.567 715.07 938.868C715.07 938.868 722.583 926.238 706.563 924.251C696.198 922.968 689.084 928.679 689.084 928.679Z" fill="black"/>
<path d="M569.167 1055.22C569.167 1055.22 575.574 1049.97 580.931 1055.38C586.285 1060.79 593.226 1064.23 596.733 1055.61C596.733 1055.61 599.348 1070.08 583.644 1066.33C573.486 1063.9 569.167 1055.22 569.167 1055.22Z" fill="#3E1515"/>
<path d="M609.528 963.176C609.528 963.176 601.8 980.964 572.85 962.37C572.85 962.37 494.001 1008.97 484.633 1015.22C475.246 1021.47 467.978 1063.08 467.978 1063.08C467.978 1063.08 491.902 1062.05 490.863 1083.92C490.863 1083.92 442.996 1085.4 438.82 1074.76C434.667 1064.15 469.731 999.624 480.137 990.259L370.559 937.34L387.191 918.634L394.042 910.903C394.042 910.903 492.778 963.962 497.989 964.493C497.989 964.493 528.647 906.498 535.547 907.096C542.443 907.721 575.224 920.366 575.224 920.366C575.224 920.366 568.467 938.195 541.635 924.678C541.635 924.678 519.652 948.853 513.399 967.582L521.266 974.597C521.266 974.597 563.715 947.558 573.079 946.523C582.466 945.482 609.528 963.176 609.528 963.176Z" fill="#F68629"/>
<path d="M497.989 964.492C497.989 964.492 491.492 964.492 483.96 963.119C480.085 962.408 416.834 933.856 387.191 918.634L394.042 910.902C394.042 910.902 492.778 963.962 497.989 964.492Z" fill="white"/>
<path d="M564.156 916.392C564.156 916.392 568.321 923.559 575.232 920.369C582.14 917.178 589.848 916.382 590.116 925.686C590.116 925.686 597.629 913.051 581.609 911.064C571.244 909.781 564.156 916.392 564.156 916.392Z" fill="black"/>
<path d="M600.062 957.4C600.062 957.4 604.253 965.467 611.164 962.277C618.075 959.086 625.784 958.292 626.047 967.592C626.047 967.592 633.56 954.959 617.545 952.973C607.176 951.69 600.062 957.4 600.062 957.4Z" fill="#3E1515"/>
<path d="M480.145 1083.94C480.145 1083.94 486.552 1078.69 491.909 1084.1C497.263 1089.51 504.204 1092.95 507.71 1084.33C507.71 1084.33 510.325 1098.8 494.625 1095.05C484.467 1092.62 480.145 1083.94 480.145 1083.94Z" fill="#3E1515"/>
<path d="M506.928 948.172C506.928 948.172 512.327 950.591 514.761 952.788" stroke="#3E1515" stroke-width="1.33333" stroke-miterlimit="10" stroke-linecap="round" stroke-linejoin="round"/>
<path d="M513.264 937.52C515.532 937.991 517.76 938.661 519.911 939.515" stroke="#3E1515" stroke-width="1.33333" stroke-miterlimit="10" stroke-linecap="round" stroke-linejoin="round"/>
<path d="M519.987 925.361C521.989 926.352 523.908 927.51 525.717 928.815" stroke="#3E1515" stroke-width="1.33333" stroke-miterlimit="10" stroke-linecap="round" stroke-linejoin="round"/>
<path d="M528.177 914.185C529.46 915.34 530.743 916.491 532.026 917.646" stroke="#3E1515" stroke-width="1.33333" stroke-miterlimit="10" stroke-linecap="round" stroke-linejoin="round"/>
<path d="M542.184 909.026C543.102 911.125 543.5 913.45 543.339 915.738" stroke="#3E1515" stroke-width="1.33333" stroke-miterlimit="10" stroke-linecap="round" stroke-linejoin="round"/>
<path d="M553.396 912.695C553.396 914.219 553.396 915.738 553.396 917.258" stroke="#3E1515" stroke-width="1.33333" stroke-miterlimit="10" stroke-linecap="round" stroke-linejoin="round"/>
<path d="M533.646 966.489C535.693 967.505 537.224 969.511 537.665 971.754" stroke="#3E1515" stroke-width="1.33333" stroke-miterlimit="10" stroke-linecap="round" stroke-linejoin="round"/>
<path d="M545.234 960.388C546.811 961.652 548.097 963.277 548.974 965.095" stroke="#3E1515" stroke-width="1.33333" stroke-miterlimit="10" stroke-linecap="round" stroke-linejoin="round"/>
<path d="M555.6 953.662C557.195 954.839 558.286 956.672 558.56 958.632" stroke="#3E1515" stroke-width="1.33333" stroke-miterlimit="10" stroke-linecap="round" stroke-linejoin="round"/>
<path d="M568.993 948.563C569.731 950.546 570.287 952.603 570.652 954.691" stroke="#3E1515" stroke-width="1.33333" stroke-miterlimit="10" stroke-linecap="round" stroke-linejoin="round"/>
<path d="M586.943 950.433C586.518 952.859 586.089 955.294 585.66 957.72" stroke="#3E1515" stroke-width="1.33333" stroke-miterlimit="10" stroke-linecap="round" stroke-linejoin="round"/>
<path d="M462.768 1082.76C464.54 1079.86 466.669 1077.18 469.092 1074.79" stroke="#3E1515" stroke-width="1.33333" stroke-miterlimit="10" stroke-linecap="round" stroke-linejoin="round"/>
<path d="M445.031 1079.34C447.236 1076.78 449.7 1074.44 452.383 1072.38" stroke="#3E1515" stroke-width="1.33333" stroke-miterlimit="10" stroke-linecap="round" stroke-linejoin="round"/>
<path d="M439.57 1063.51C442.411 1061.14 445.985 1059.67 449.668 1059.35" stroke="#3E1515" stroke-width="1.33333" stroke-miterlimit="10" stroke-linecap="round" stroke-linejoin="round"/>
<path d="M447.785 1045.18C450.626 1044.16 453.639 1043.61 456.66 1043.57" stroke="#3E1515" stroke-width="1.33333" stroke-miterlimit="10" stroke-linecap="round" stroke-linejoin="round"/>
<path d="M455.746 1028.29C458.079 1028.29 460.411 1028.29 462.744 1028.29" stroke="#3E1515" stroke-width="1.33333" stroke-miterlimit="10" stroke-linecap="round" stroke-linejoin="round"/>
<path d="M462.417 1016.02C465.923 1015.31 469.584 1015.39 473.053 1016.25" stroke="#3E1515" stroke-width="1.33333" stroke-miterlimit="10" stroke-linecap="round" stroke-linejoin="round"/>
<path d="M292.778 -49.6042C292.684 -49.3859 292.608 -49.2167 292.552 -49.085C292.612 -49.2205 292.691 -49.401 292.778 -49.6042ZM293.918 -52.2303C293.726 -51.7863 293.56 -51.4025 293.406 -51.0527C293.568 -51.4214 293.737 -51.8164 293.918 -52.2303ZM292.428 -48.7953C292.386 -48.705 292.386 -48.7013 292.428 -48.7953ZM294.948 -54.6004C294.73 -54.1038 294.531 -53.6373 294.343 -53.2122C294.546 -53.6749 294.749 -54.1414 294.948 -54.6004ZM296.438 -58.0354C296.367 -57.8698 296.295 -57.708 296.228 -57.5463C296.307 -57.7306 296.378 -57.8962 296.438 -58.0354ZM488.263 -104.062C488.263 -104.062 460.438 -108.19 440.392 -98.9984C420.343 -89.8036 351.457 14.7374 337.383 53.2626C337.383 53.2626 342.548 -55.793 358.831 -99.6531C375.11 -143.509 417.601 -200.883 417.601 -200.883C417.601 -200.883 379.35 -192.983 362.608 -173.671C345.874 -154.367 306.393 -80.9586 296.698 -58.6335C296.698 -58.6335 283.628 -210.74 314.625 -266C314.625 -266 277.289 -245.225 266.893 -227.663C256.502 -210.105 244.809 -101.877 243.888 -78.5207C243.888 -78.5207 221.585 -143.75 224.606 -179.777C224.606 -179.777 211.807 -177.053 206.675 -159.089C201.54 -141.128 208.203 -34.5703 208.203 -34.5703C208.203 -34.5703 173.451 -86.4364 168.395 -102.896C168.395 -102.896 157.819 -87.9112 154.783 -76.0489C151.747 -64.1866 173.624 -11.4063 180.058 6.24984C180.058 6.24984 144.392 -34.3296 140.438 -47.4221C140.438 -47.4221 132.157 -30.447 131.879 -16.1919C131.6 -1.93682 160.005 51.6749 155.219 93.4168C155.219 93.4168 122.947 58.1949 118.079 44.3123C118.079 44.3123 108.139 86.4229 108.414 108.402C108.684 130.377 128.267 169.094 140.769 199.256C140.769 199.256 107.025 179.662 98.564 169.914C98.564 169.914 111.525 224.628 136.713 251.299C136.713 251.299 74.2638 229.767 60.8401 222.962C60.8401 222.962 57.6197 232.25 56.3292 250.456C56.3292 250.456 96.7995 301.054 130.265 334.899C130.265 334.899 57.9545 317.999 44.8695 316.37C44.8695 316.37 53.9402 353.278 51.1788 387.115C51.1788 387.115 100.919 424.478 106.295 448.928L63.5452 411.863C63.5452 411.863 72.5595 448.834 80.4827 470.343L51.9876 441.916C51.9876 441.916 40.6144 458.172 45.5204 478.274C47.6949 487.19 64.8319 518.123 64.8319 518.123L390.949 550.61C364.587 447.8 367.319 328.018 397.398 259.888C427.477 191.754 434.286 142.1 427.669 121.871C421.055 101.641 408.09 83.1572 408.09 83.1572C408.09 83.1572 400.543 122.51 392.082 148.992C383.617 175.471 355.934 204.617 355.934 204.617C355.934 204.617 373.297 98.2137 381.886 60.441C390.479 22.6644 468.918 -90.1045 488.263 -104.062Z" fill="#272727"/>
<path d="M445.1 546.438L510.059 630.975C510.059 630.975 463.96 634.045 429.63 687.548C400.51 732.924 359.314 761.814 317.944 775.2C317.944 775.2 339.302 805.008 358.129 852.465C376.958 899.922 453.618 929.123 453.618 929.123C453.618 929.123 431.104 935.817 411.639 933.379L454.227 967.449L399.472 951.633L421.676 982.055C421.676 982.055 370.329 951.633 358.129 939.466C345.931 927.295 125.081 777.548 -9.07222 866.151C-9.07222 866.151 17.395 822.652 33.2114 806.836L-17.8947 800.753C4.00901 791.016 26.5222 766.78 26.5222 766.78C26.5222 766.78 -33.711 778.541 -99.4183 789.493C-99.4183 789.493 -29.7306 749.158 21.0444 690.49C21.0444 690.49 -12.161 678.341 -19.6478 673.029C-36.5177 661.058 -38.5794 641.321 -38.5794 641.321L1.57485 644.139C-18.5004 633.071 -49.5274 611.047 -49.5274 611.047H7.05268C-13.0263 596.092 -75.0805 600.445 -75.0805 600.445C-95.1595 573.067 -126.187 551.126 -126.187 551.126C-115.238 543.785 -49.5274 509.188 -49.5274 509.188C-96.9842 505.535 -160.708 493.812 -160.708 493.812C-171.66 479.211 -175.31 470.083 -175.31 470.083C-160.708 466.434 -99.4183 441.791 -99.4183 441.791C-135.923 438.142 -181.552 405.287 -181.552 405.287C-168.776 407.115 -130.449 399.813 -130.449 399.813C-159.652 385.211 -199.804 368.786 -214.408 352.36C-229.009 335.934 -249.085 297.6 -249.085 297.6C-236.308 304.903 -188.854 310.381 -188.854 310.381C-212.581 275.7 -269.162 253.797 -278.288 242.849C-287.415 231.893 -292.277 213.643 -292.277 213.643C-280.713 220.945 -227.182 228.244 -227.182 228.244C-243.611 219.117 -294.715 193.564 -300.191 182.616C-305.667 171.664 -307.492 153.413 -307.492 153.413C-292.89 162.536 -232.658 178.966 -232.658 178.966C-232.658 178.966 -307.492 102.815 -315.38 85.8774C-323.266 68.9436 -315.38 58.4996 -315.38 58.4996C-294.063 87.702 -234.484 122.382 -234.484 122.382C-249.085 104.132 -311.141 14.696 -314.793 -5.37921C-318.444 -25.4582 -303.842 -65.6124 -303.842 -65.6124C-291.065 -3.55824 -181.552 102.815 -181.552 102.815C-188.854 79.5945 -207.106 -1.72984 -207.106 -27.2829C-207.106 -52.8359 -183.378 -83.8667 -183.378 -83.8667C-183.378 -83.8667 -177.903 -12.6817 -161.475 31.1219C-145.049 74.9293 -77.5147 160.712 -77.5147 160.712C-92.1196 122.382 -108.545 -1.72982 -99.4183 -21.8088C-90.2912 -41.8878 -66.5666 -56.9932 -66.5666 -56.9932C-72.0406 -33.7727 -57.4394 102.815 -39.1851 136.983C-20.9345 171.152 35.6456 262.92 35.6456 262.92C35.6456 262.92 37.474 222.77 26.5184 197.217C15.5704 171.664 -4.50864 136.983 -4.50864 136.983C-4.50864 136.983 17.395 142.457 35.6456 153.413C53.8999 164.361 81.2777 206.34 103.178 277.525C125.081 348.706 201.477 441.001 288.742 501.415C304.558 512.367 392.169 526.968 445.1 546.438Z" fill="black"/>
<path d="M188.963 713.751C188.963 713.751 200.825 717.397 220.904 718.311C240.979 719.225 277.484 720.136 294.824 739.304C294.824 739.304 282.048 737.476 269.271 739.304C269.271 739.304 301.807 748.857 317.943 775.2" stroke="white" stroke-width="1.33333" stroke-miterlimit="10" stroke-linecap="round" stroke-linejoin="round"/>
<path d="M21.0439 690.49C21.0439 690.49 57.8423 672.905 148.809 600.561C202.586 557.789 300.081 611.54 266.424 556.78" stroke="white" stroke-width="1.33333" stroke-miterlimit="10" stroke-linecap="round" stroke-linejoin="round"/>
<path d="M-137.485 364.302C-77.5569 384.945 -15.8488 400.43 46.7245 410.532" stroke="white" stroke-width="1.33333" stroke-miterlimit="10" stroke-linecap="round" stroke-linejoin="round"/>
<path d="M-75.5176 452.194C-19.8931 464.23 37.7931 466.683 94.2416 459.403" stroke="white" stroke-width="1.33333" stroke-miterlimit="10" stroke-linecap="round" stroke-linejoin="round"/>
<path d="M-29.8643 532.378C15.211 539.451 62.0921 534.666 104.808 518.627" stroke="white" stroke-width="1.33333" stroke-miterlimit="10" stroke-linecap="round" stroke-linejoin="round"/>
<path d="M26.7109 612.337C66.7523 612.036 106.666 601.118 141.282 580.99" stroke="white" stroke-width="1.33333" stroke-miterlimit="10" stroke-linecap="round" stroke-linejoin="round"/>
<path d="M588.238 582.848L583.761 588.131L580.97 591.404L539.423 640.264L535.917 644.368L534.807 645.685C504.036 639.895 486.252 644.741 472.064 651.776C457.877 658.811 444.89 672.905 444.89 672.905L446.064 651.776L417.693 659.827C421.222 650.757 433.054 632.927 433.054 632.927C422.418 633.202 394.043 641.716 394.043 641.716C396.398 634.658 423.596 604.094 423.596 604.094C410.586 603.702 385.763 600.565 385.763 600.565L425.947 582.593C408.231 579.824 385.763 565.245 385.763 565.245L427.147 557.954C414.137 552.672 410.586 533.063 410.586 533.063C438.566 544.553 464.935 544.481 497.369 546.073C503.204 546.374 509.246 546.72 515.522 547.182C568.998 551.197 588.238 582.848 588.238 582.848Z" fill="white"/>
<path d="M588.237 582.848L583.76 588.131C573.7 579.316 565.626 581.298 565.626 581.298C561.751 589.376 541.22 584.459 528.44 580.17C515.682 575.881 506.386 586.746 506.386 586.746C507.447 581.441 515.062 572.604 515.062 572.604C504.727 571.381 484.034 577.171 484.034 577.171C485.855 571.035 505.024 564.688 505.024 564.688C480.088 559.666 452.409 565.915 452.409 565.915C462.443 550.617 497.368 546.073 497.368 546.073C503.203 546.374 509.245 546.72 515.521 547.183C568.997 551.197 588.237 582.848 588.237 582.848Z" fill="#F0F0EF"/>
<path d="M539.423 640.264L535.917 644.368L534.807 645.685C504.035 639.895 486.251 644.741 472.064 651.776C457.877 658.811 444.89 672.905 444.89 672.905L446.063 651.776L417.692 659.827C421.221 650.757 433.054 632.927 433.054 632.927C422.418 633.202 394.043 641.716 394.043 641.716C394.043 641.716 422.579 620.862 448.14 617.562C448.14 617.562 445.879 629.263 441.752 641.716C441.752 641.716 455.454 634.933 467.309 632.352L460.92 647.16C460.92 647.16 497.369 629.511 539.423 640.264Z" fill="#F0F0EF"/>
<path d="M500.919 623.402C500.919 623.402 500.919 630.851 511.416 636.792C516.814 639.85 535.915 644.369 535.915 644.369L539.422 640.264L580.968 591.404L588.236 582.849C588.236 582.849 556.882 558.409 549.327 586.901C544.576 604.809 523.139 595.667 523.139 595.667C523.139 595.667 526.397 606.521 547.616 604.098C547.616 604.098 536.359 617.209 521.303 617.567C521.303 617.567 524.038 621.272 528.756 621.427C528.756 621.427 512.935 630.396 500.919 623.402Z" fill="#F0F0EF"/>
<path d="M506.849 629.643C506.849 629.643 526.612 650.268 552.183 646.747C577.755 643.225 613.105 622.288 637.947 628.549C637.947 628.549 609.144 617.567 588.218 617.567C567.296 617.567 539.979 636.182 506.849 629.643Z" fill="#F68629"/>
<path d="M641.288 637.325C641.288 637.325 640.441 625.787 599.268 625.117C575.106 624.722 516.517 645.794 510.058 630.975C509.926 630.723 509.839 630.441 509.749 630.155C509.749 630.155 527.755 635.109 546.378 612.032C558.368 597.152 567.292 580.35 588.229 582.848C609.14 585.369 672.097 608.161 641.288 637.325Z" fill="#F68629"/>
<path d="M641.288 637.325C648.425 604.88 576.183 591.095 576.183 591.095C529.975 641.712 511.303 631.464 506.849 629.643C506.849 629.643 527.755 635.109 546.378 612.032C558.369 597.152 567.293 580.35 588.229 582.848C609.14 585.369 672.097 608.161 641.288 637.325Z" fill="white"/>
<path d="M625.788 627.879C625.788 627.879 610.829 623.646 592.981 625.403C577.669 626.912 555.179 632.544 544.689 634.045" stroke="#3E1515" stroke-width="1.33333" stroke-miterlimit="10" stroke-linecap="round" stroke-linejoin="round"/>
<path d="M578.215 607.635C578.215 607.635 589.84 606.502 586.932 601.216C585.284 598.221 581.413 606.378 578.215 607.635Z" fill="#3E1515"/>
<path d="M525.038 580.174C525.038 580.174 518.526 594.429 532.1 596.024C547.062 597.781 550.083 584.771 550.083 584.771L525.038 580.174Z" fill="#F68629"/>
<path d="M506.394 586.754C506.394 586.754 509.23 575.926 522.771 575.719C536.95 575.508 558.576 589.842 565.637 581.298C565.637 581.298 565.946 590.268 548.895 586.814C531.845 583.36 518.557 577.28 506.394 586.754Z" fill="#491617"/>
<path d="M534.178 581.852C534.178 581.852 533.166 589.177 541.838 590.546C547.176 591.389 550.084 584.771 550.084 584.771L534.178 581.852Z" fill="#491617"/>
<path d="M538.82 586.577C538.688 585.685 536.796 585.234 534.595 585.561C532.394 585.888 530.716 586.874 530.844 587.758C530.975 588.646 532.868 589.097 535.073 588.77C537.273 588.443 538.951 587.461 538.82 586.577Z" fill="white"/>
<path d="M427.147 546.284C431.715 553.594 441.752 559.06 441.752 559.06C411.579 573.251 385.763 565.245 385.763 565.245L427.147 557.954C414.137 552.672 410.586 533.063 410.586 533.063C438.566 544.553 464.935 544.482 497.369 546.073C456.237 553.157 427.147 546.284 427.147 546.284Z" fill="#F0F0EF"/>
<path d="M429.434 609.963C429.434 609.963 463.083 586.607 494.227 592.83C494.227 592.83 482.82 599.455 481.909 602.984C481.909 602.984 497.116 602.134 500.92 604.098C500.92 604.098 462.744 613.364 458.181 619.749C458.181 619.749 459.55 611.539 466.732 604.098C466.732 604.098 445.209 604.365 429.434 609.963Z" fill="#F0F0EF"/>
<path d="M1189.17 344.448C1189.17 344.448 1100.57 345.542 1122.48 477.003C1144.39 608.47 1275.86 799.084 1525.63 803.474L1189.17 344.448Z" fill="#3E1515"/>
<path d="M2276.15 717.02C2189.25 797.329 2107.62 858.367 2028.25 899.238C2028.19 899.238 2028.19 899.238 2028.13 899.238C1949.44 939.777 1872.95 960.492 1795.85 960.492C1622.05 960.492 1423.17 789.133 1361.3 724.612C1258.34 617.22 1198.91 409.077 1188.06 356.522C1186.79 350.262 1187.23 346.333 1189.17 344.448C1209.11 324.898 1386.39 516.361 1494.17 600.159C1612.42 692.211 1963.61 696.089 2090.84 649.505C2090.89 649.448 2090.94 649.448 2090.94 649.448C2198.72 609.852 2485.17 300.973 2488.22 342.397C2491.71 389.146 2390.3 611.514 2276.15 717.02Z" fill="#ED144C"/>
<path d="M2276.16 717.021C2189.26 797.329 2107.62 858.368 2028.25 899.238C2028.19 899.238 2028.19 899.238 2028.14 899.238C1646.93 981.151 1524.2 758.891 1525.63 729.706C1527.07 700.521 1617.57 753.077 1787.1 753.077C1956.86 753.077 2086.84 652.665 2090.84 649.506C2090.9 649.448 2090.95 649.448 2090.95 649.448C2198.73 609.852 2485.18 300.973 2488.22 342.397C2491.71 389.146 2390.3 611.514 2276.16 717.021Z" fill="#ED144C"/>
<path d="M2090.94 649.448C2090.94 649.448 2052.9 673.934 1989.76 693.427C1967.27 700.349 1941.62 706.666 1913.33 710.984C1866.58 718.186 1812.81 720.014 1754.49 710.545C1727.84 706.17 1700.26 699.464 1672.01 689.829C1633.52 676.647 1593.7 658.04 1553.27 632.503C1553.27 632.503 1560.3 557.181 1566.78 463.971C1575.31 342.62 1582.96 190.811 1573.04 135.205C1570.16 118.972 1580.3 108.064 1598.85 100.753C1618.68 92.9459 1648.14 89.2333 1681.76 87.5208C1705.52 86.3552 1731.39 86.1823 1757.36 86.2975C1781.4 86.2975 1805.54 86.6357 1828.25 86.5782C1859.44 86.5206 1890.57 85.3549 1920.14 84.1388C1948.22 82.9228 1974.86 81.6492 1998.73 81.203C2048.25 80.2101 2085.68 82.5344 2098.92 95.7668C2117.58 114.489 2088.95 296.368 2082.75 463.971C2080.2 532.148 2081.36 597.943 2090.94 649.448Z" fill="white"/>
<path d="M1672.01 689.828C1633.52 676.646 1593.7 658.039 1553.27 632.502C1553.27 632.502 1560.3 557.18 1566.78 463.97C1575.31 342.619 1582.96 190.81 1573.04 135.204C1567.12 101.637 1616.68 90.7864 1681.76 87.5197C1682.32 205.762 1681.98 454.048 1672.01 689.828Z" fill="#ED144C"/>
<path d="M1913.33 710.984C1866.58 718.186 1812.81 720.014 1754.49 710.545C1761.74 476.484 1759.36 217.729 1757.36 86.2975C1781.4 86.2975 1805.55 86.6357 1828.25 86.5782C1859.44 86.5206 1890.57 85.3549 1920.14 84.1388C1901.31 254.009 1905.13 505.561 1913.33 710.984Z" fill="#ED144C"/>
<path d="M2090.94 649.448C2090.94 649.448 1837.84 812.23 1553.27 632.503C1553.27 632.503 1554.04 624.199 1555.32 609.686C1556.98 590.69 1559.53 561.059 1562.24 525.557C1563.74 506.503 1565.29 485.68 1566.78 463.971H1566.84C1566.84 463.971 1794.08 564.88 2082.75 463.971C2081.97 484.571 2081.53 504.841 2081.59 524.672V524.722C2081.64 553.856 2082.69 581.768 2085.19 607.527C2086.63 622.314 2088.51 636.323 2090.94 649.448Z" fill="#52B5E9"/>
<path d="M1829.21 538.249L1847.78 595.402H1907.88L1859.26 630.732L1877.83 687.893L1829.21 652.563L1780.59 687.893L1799.16 630.732L1750.54 595.402H1810.64L1829.21 538.249Z" fill="white"/>
<path d="M1598.35 584.875L1610.81 643.691L1566.18 603.425L1555.32 609.685C1556.98 590.689 1559.53 561.059 1562.24 525.556L1578.19 489.773L1590.65 548.538L1650.41 554.856L1598.35 584.875Z" fill="white"/>
<path d="M2276.15 717.02C2103.07 876.968 1950.71 960.492 1795.85 960.492C1622.05 960.492 1423.17 789.133 1361.3 724.612C1258.34 617.22 1198.91 409.077 1188.06 356.522C1186.79 350.262 1187.23 346.333 1189.17 344.448C1189.17 344.448 1256.34 581.876 1354.73 693.426C1447.49 798.595 1606.7 926.17 1777.63 937.121C1922.71 946.418 2139.4 849.114 2270.61 700.521C2401.76 551.864 2482.4 374.352 2488.22 342.397C2491.71 389.146 2390.3 611.514 2276.15 717.02Z" fill="white"/>
<path d="M1588.75 161.604C1597.19 267.025 1576.2 589.006 1572.38 610.657C1570.19 623.069 1553.27 632.502 1553.27 632.502C1553.27 632.502 1560.3 557.18 1566.78 463.971C1575.31 342.62 1582.96 190.811 1573.04 135.204C1570.16 118.971 1580.3 108.063 1598.85 100.752C1592.09 109.063 1585.52 121.324 1588.75 161.604Z" fill="white"/>
<path d="M1189.17 344.448C1189.17 344.448 1363.5 904.987 1803.9 910.83C2218.02 916.327 2488.22 342.397 2488.22 342.397" stroke="#ED144C" stroke-width="1.33333" stroke-miterlimit="10" stroke-linecap="round" stroke-linejoin="round"/>
</g>
<defs>
<clipPath id="clip0_163_435">
<rect width="1920" height="1080" fill="white"/>
</clipPath>
</defs>
</svg>
