<svg width="1920" height="1080" viewBox="0 0 1920 1080" fill="none" xmlns="http://www.w3.org/2000/svg">
<g clip-path="url(#clip0_161_609)">
<rect width="1920" height="1080" fill="#2C357D"/>
<path d="M1319.45 263.778C1166.76 -46.5973 1058.04 -382.736 953.072 -712C1124.7 -570.579 1303.52 -470.24 1526.89 -446.354C1792.71 -418.495 2053.12 -484.037 2317.81 -491.906C2625.82 -501.048 2869.21 -416.943 3108.71 -220.269C3108.71 22.5304 3108.71 191.965 3108.71 434.765C3108.71 434.765 2895.58 393.202 2030.9 772.503L2030.88 772.519C1976.13 791.484 1929.32 808.277 1893.99 821.733C1540.16 954.696 1173.18 1001.24 936 652.872C1037.89 528.772 1191.98 388.623 1319.45 263.778Z" fill="white"/>
<path d="M1522.8 2.6492C2091.67 -18.4584 2570.22 -353.992 3104.62 6.68463C3104.62 25.5884 3104.62 44.5073 3104.62 63.4111C2702.92 -195.266 2322.36 -75.5733 1895.15 44.1194C1671.43 101.84 1468.09 133.439 1239 90.7581C1219.68 45.0197 1200.34 -2.17762 1181 -50.8959C1298.92 -15.9441 1400.07 -0.377264 1522.8 2.6492Z" fill="#BE1C2D"/>
<path d="M1277.5 304C1289.73 292.267 1305.74 278.539 1318 263.5C1310.92 250.634 1305.31 237.099 1298.26 221.423C1372.8 231.884 1448.45 233.7 1524.48 227.461C2087.2 178.975 2558.14 -216.033 3108.71 120.153C3108.71 139.072 3108.71 157.976 3108.71 176.895C2696.47 -56.2819 2312.57 92.9306 1898.88 244.145C1687.84 310.091 1496.96 330.602 1277.5 304Z" fill="#BE1C2D"/>
<path d="M1152.5 425C1174.69 404.079 1198.73 380.244 1219.57 360.409C1314.87 389.463 1413.95 405.573 1513.46 407.048C2076.85 415.569 2552.46 -99.2405 3108.71 241.275C3108.71 259.356 3108.71 274.535 3108.71 288.721C2667.76 105.861 2318.47 274.411 1897.79 437.514C1635.39 514.247 1410.59 520.931 1152.5 425Z" fill="#BE1C2D"/>
<path d="M1026 544.805C1045.4 525.436 1066.09 505.958 1087.46 486.076C1214.34 567.139 1347.32 593.741 1494.19 606.002C2059.56 615.702 2402.98 104.401 3108.71 330.315C3108.71 344.485 3108.71 359.601 3108.71 377.605C2699.76 266.542 2267.43 475.6 1896.16 634.171C1571.87 754.873 1296.55 750.481 1026 544.805Z" fill="#BE1C2D"/>
<path d="M936.093 652.751C941.013 645.549 946.166 638.488 951.334 631.441C955.462 625.87 959.637 620.329 963.874 614.819C1347.21 943.368 1835.93 765.8 2342.87 551.17C2862.18 331.294 3108.71 404.053 3108.71 404.053C3108.71 414.219 3108.71 424.338 3108.71 434.768C3108.71 434.768 2895.58 393.204 2030.9 772.505C2030.9 772.505 2030.88 772.505 2030.88 772.521C2003.66 781.957 1978.39 790.851 1955.55 799.061C1955.02 799.247 1954.52 799.418 1953.99 799.619C1949.21 801.327 1944.56 803.018 1939.99 804.679C1938.67 805.145 1937.39 805.626 1936.08 806.091C1932.45 807.426 1928.9 808.714 1925.42 810.002C1923.82 810.592 1922.22 811.167 1920.66 811.756C1917.3 812.998 1914.04 814.208 1910.83 815.403C1909.5 815.9 1908.12 816.413 1906.8 816.909C1902.53 818.508 1898.35 820.075 1894.36 821.596C1894.24 821.643 1894.12 821.705 1893.99 821.736C1755.78 873.682 1615.56 912.421 1481.85 919.607C1439.06 921.904 1396.94 920.973 1355.76 916.193C1345.47 914.998 1335.24 913.57 1325.06 911.878C1284.38 905.158 1244.71 894.449 1206.35 879.145C1196.76 875.312 1187.24 871.199 1177.82 866.791C1135.39 846.956 1094.71 821.115 1056.14 788.429C1047.56 781.166 1039.1 773.561 1030.75 765.599C1018.21 753.679 1005.92 740.968 993.89 727.434C973.854 704.899 954.531 680.097 936 652.875C936.031 652.828 936.062 652.782 936.093 652.751Z" fill="#BE1C2D"/>
</g>
<defs>
<clipPath id="clip0_161_609">
<rect width="1920" height="1080" fill="white"/>
</clipPath>
</defs>
</svg>
