<svg width="581" height="510" viewBox="0 0 581 510" fill="none" xmlns="http://www.w3.org/2000/svg">
<path d="M13.7834 361.425C10.8582 398.389 17.5939 435.1 23.2543 471.62C7.96415 502.635 83.7884 496.013 93.8549 496.013C153.446 496.013 213.382 483.538 272.823 487.75C325.871 491.509 378.768 496.814 432.029 494.139C473.987 492.032 526.208 487.335 553.84 450.696C572.994 425.298 567.52 383.557 567.64 354.099C567.76 324.332 568.51 294.337 565.766 264.657C562.74 231.932 558.833 199.111 555.203 166.442C552.121 138.705 547.447 111.174 536.974 85.1779C532.068 72.9994 528.117 62.0009 514.656 58.0899C492.809 51.7424 469.212 49.1261 446.681 46.7606C421.115 44.0767 394.877 44.4939 369.165 44.0348C336.379 43.4493 303.603 50.4107 270.949 52.979C246.336 54.9148 223.226 61.7505 199.14 66.6081C180.447 70.3782 164.7 77.9462 146.838 83.9002C132.391 88.716 118.794 89.2984 106.292 98.9775C84.3468 115.967 60.4588 136.149 49.3897 162.438C41.1481 182.012 35.3603 204.462 34.0568 225.644C32.024 258.677 25.0758 290.819 19.9165 323.433C17.8991 336.186 14.804 348.528 13.7834 361.425Z" fill="white"/>
<path d="M24.8571 482.213C18.9875 442.2 10.5752 401.964 13.7834 361.425C14.804 348.528 17.8991 336.186 19.9165 323.433C25.0758 290.819 32.024 258.677 34.0568 225.644C35.3603 204.462 41.1481 182.012 49.3897 162.438C60.4588 136.149 84.3468 115.967 106.292 98.9775C118.794 89.2984 132.391 88.716 146.838 83.9002C164.7 77.9462 180.447 70.3782 199.14 66.6081C223.226 61.7505 246.336 54.9148 270.949 52.979C303.603 50.4107 336.379 43.4493 369.165 44.0348C394.877 44.4939 421.115 44.0767 446.681 46.7606C469.212 49.1261 492.809 51.7424 514.656 58.0899C528.117 62.0009 532.067 72.9994 536.974 85.1779C547.447 111.174 552.121 138.705 555.203 166.442C558.833 199.111 562.74 231.932 565.766 264.657C568.51 294.337 567.76 324.332 567.64 354.099C567.52 383.557 572.994 425.298 553.84 450.696C526.208 487.335 473.987 492.032 432.029 494.139C378.768 496.814 325.871 491.509 272.823 487.75C213.382 483.538 153.446 496.013 93.8549 496.013C83.7733 496.013 7.73629 502.655 23.3238 471.48" stroke="white" stroke-width="25" stroke-linecap="round"/>
<path d="M13.7834 330.507C10.8582 367.471 17.5939 404.183 23.2543 440.703C7.96415 471.718 83.7884 465.095 93.8549 465.095C153.446 465.095 213.382 452.62 272.823 456.833C325.871 460.592 378.768 465.896 432.029 463.221C473.987 461.114 526.208 456.418 553.84 419.778C572.994 394.381 567.52 352.64 567.64 323.182C567.76 293.415 568.51 263.42 565.766 233.74C562.74 201.015 558.833 168.194 555.203 135.525C552.121 107.787 547.447 80.2563 536.974 54.2606C532.068 42.082 528.117 31.0836 514.656 27.1725C492.809 20.825 469.212 18.2087 446.681 15.8433C421.115 13.1594 394.877 13.5766 369.165 13.1174C336.379 12.532 303.603 19.4934 270.949 22.0616C246.336 23.9975 223.226 30.8332 199.14 35.6908C180.447 39.4608 164.7 47.0289 146.838 52.9828C132.391 57.7987 118.794 58.381 106.292 68.0601C84.3468 85.0496 60.4588 105.232 49.3897 131.521C41.1481 151.095 35.3603 173.544 34.0568 194.726C32.024 227.76 25.0758 259.902 19.9165 292.516C17.8991 305.269 14.804 317.61 13.7834 330.507Z" fill="#1F3259"/>
<path d="M24.8571 451.296C18.9875 411.283 10.5752 371.047 13.7834 330.507C14.804 317.61 17.8991 305.269 19.9165 292.516C25.0758 259.902 32.024 227.76 34.0568 194.726C35.3603 173.544 41.1481 151.095 49.3897 131.521C60.4588 105.232 84.3468 85.0496 106.292 68.0601C118.794 58.381 132.391 57.7987 146.838 52.9828C164.7 47.0289 180.447 39.4608 199.14 35.6908C223.226 30.8332 246.336 23.9975 270.949 22.0616C303.603 19.4933 336.379 12.532 369.165 13.1174C394.877 13.5766 421.115 13.1594 446.681 15.8433C469.212 18.2087 492.809 20.825 514.656 27.1725C528.117 31.0836 532.067 42.082 536.974 54.2606C547.447 80.2563 552.121 107.787 555.203 135.525C558.833 168.194 562.74 201.015 565.766 233.74C568.51 263.42 567.76 293.415 567.64 323.182C567.52 352.64 572.994 394.381 553.84 419.778C526.208 456.418 473.987 461.114 432.029 463.221C378.768 465.896 325.871 460.592 272.823 456.833C213.382 452.62 153.446 465.095 93.8549 465.095C83.7733 465.095 7.73629 471.738 23.3238 440.563" stroke="#D51E25" stroke-width="25" stroke-linecap="round"/>
<path d="M440.412 120.358C439.34 117.185 438.061 116.35 436.064 115.557C431.695 113.928 424.295 116.392 424.295 116.392C424.295 116.392 162.317 211.088 147.35 221.569C144.127 223.823 143.048 225.159 142.512 226.704C139.925 234.136 147.985 237.435 147.985 237.435L215.51 259.564C215.51 259.564 218.026 259.94 218.923 259.355C234.284 249.585 373.473 161.235 381.501 158.27C382.767 157.895 383.706 158.312 383.456 159.189C380.242 170.546 259.35 278.562 259.35 278.562C259.35 278.562 258.89 279.147 258.599 279.815L258.441 279.731L252.141 347.079C252.141 347.079 249.5 367.706 270.019 347.079C284.496 332.508 298.503 320.315 305.513 314.428C328.731 330.545 353.718 348.374 364.503 357.685C369.918 362.361 374.449 363.113 378.178 362.988C388.415 362.612 391.272 351.297 391.272 351.297C391.272 351.297 439.012 158.103 440.607 132.216C440.765 129.669 440.981 128.083 440.997 126.329C441.027 123.907 440.802 121.486 440.412 120.358Z" fill="white"/>
</svg>
