<svg width="581" height="510" viewBox="0 0 581 510" fill="none" xmlns="http://www.w3.org/2000/svg">
<path d="M13.7072 361.342C10.782 398.306 17.5177 435.018 23.1782 471.538C7.88798 502.553 83.7122 495.93 93.7787 495.93C153.37 495.93 213.305 483.455 272.747 487.667C325.795 491.427 378.692 496.731 431.953 494.056C473.911 491.949 526.132 487.253 553.764 450.613C572.918 425.216 567.444 383.475 567.563 354.016C567.684 324.25 568.434 294.254 565.689 264.575C562.663 231.849 558.757 199.029 555.127 166.359C552.045 138.622 547.371 111.091 536.898 85.0953C531.991 72.9168 528.041 61.9183 514.58 58.0073C492.733 51.6597 469.136 49.0434 446.604 46.678C421.039 43.9941 394.801 44.4113 369.088 43.9522C336.303 43.3667 303.526 50.3281 270.873 52.8963C246.26 54.8322 223.15 61.6679 199.064 66.5255C180.371 70.2956 164.624 77.8636 146.762 83.8175C132.315 88.6334 118.718 89.2157 106.215 98.8948C84.2706 115.884 60.3827 136.066 49.3135 162.356C41.072 181.929 35.2842 204.379 33.9807 225.561C31.9478 258.595 24.9996 290.737 19.8404 323.351C17.8229 336.104 14.7278 348.445 13.7072 361.342Z" fill="white"/>
<path d="M24.781 482.131C18.9113 442.118 10.499 401.882 13.7072 361.342C14.7278 348.445 17.8229 336.104 19.8404 323.351C24.9996 290.737 31.9478 258.595 33.9807 225.561C35.2842 204.379 41.072 181.929 49.3135 162.356C60.3827 136.066 84.2706 115.884 106.215 98.8948C118.718 89.2157 132.315 88.6334 146.762 83.8175C164.624 77.8636 180.371 70.2956 199.064 66.5255C223.15 61.6679 246.26 54.8322 270.873 52.8963C303.526 50.3281 336.303 43.3667 369.088 43.9522C394.801 44.4113 421.039 43.9941 446.604 46.678C469.136 49.0434 492.733 51.6597 514.58 58.0073C528.041 61.9183 531.991 72.9168 536.898 85.0953C547.371 111.091 552.045 138.622 555.127 166.359C558.757 199.029 562.663 231.849 565.689 264.575C568.434 294.254 567.684 324.249 567.563 354.016C567.444 383.475 572.918 425.216 553.764 450.613C526.132 487.253 473.911 491.949 431.953 494.056C378.692 496.731 325.795 491.427 272.747 487.667C213.305 483.455 153.37 495.93 93.7787 495.93C83.6971 495.93 7.66012 502.573 23.2477 471.398" stroke="white" stroke-width="25" stroke-linecap="round"/>
<path d="M13.7072 330.425C10.782 367.389 17.5177 404.1 23.1782 440.62C7.88798 471.635 83.7122 465.013 93.7787 465.013C153.37 465.013 213.305 452.538 272.747 456.75C325.795 460.509 378.692 465.814 431.953 463.139C473.911 461.032 526.132 456.335 553.764 419.696C572.918 394.298 567.444 352.557 567.563 323.099C567.684 293.332 568.434 263.337 565.689 233.657C562.663 200.932 558.757 168.111 555.127 135.442C552.045 107.705 547.371 80.1736 536.898 54.1779C531.991 41.9994 528.041 31.0009 514.58 27.0899C492.733 20.7424 469.136 18.1261 446.604 15.7606C421.039 13.0767 394.801 13.4939 369.088 13.0348C336.303 12.4493 303.526 19.4107 270.873 21.979C246.26 23.9148 223.15 30.7505 199.064 35.6081C180.371 39.3782 164.624 46.9462 146.762 52.9002C132.315 57.716 118.718 58.2984 106.215 67.9775C84.2706 84.967 60.3827 105.149 49.3135 131.438C41.072 151.012 35.2842 173.462 33.9807 194.644C31.9478 227.677 24.9996 259.819 19.8404 292.433C17.8229 305.186 14.7278 317.528 13.7072 330.425Z" fill="#1F3259"/>
<path d="M24.781 451.213C18.9113 411.2 10.499 370.964 13.7072 330.425C14.7278 317.528 17.8229 305.186 19.8404 292.433C24.9996 259.819 31.9478 227.677 33.9807 194.644C35.2842 173.462 41.072 151.012 49.3135 131.438C60.3827 105.149 84.2706 84.967 106.215 67.9775C118.718 58.2984 132.315 57.716 146.762 52.9002C164.624 46.9462 180.371 39.3782 199.064 35.6081C223.15 30.7505 246.26 23.9148 270.873 21.979C303.526 19.4107 336.303 12.4493 369.088 13.0348C394.801 13.4939 421.039 13.0767 446.604 15.7606C469.136 18.1261 492.733 20.7424 514.58 27.0899C528.041 31.0009 531.991 41.9994 536.898 54.1779C547.371 80.1736 552.045 107.705 555.127 135.442C558.757 168.111 562.663 200.932 565.689 233.657C568.434 263.337 567.684 293.332 567.563 323.099C567.444 352.557 572.918 394.298 553.764 419.696C526.132 456.335 473.911 461.032 431.953 463.139C378.692 465.814 325.795 460.509 272.747 456.75C213.305 452.538 153.37 465.013 93.7787 465.013C83.6971 465.013 7.66012 471.655 23.2477 440.48" stroke="#D51E25" stroke-width="25" stroke-linecap="round"/>
<path d="M365.237 376.446L291.144 268.796L280.594 253.472L194.617 128.554H231.6L301.132 229.577L311.681 244.901L402.222 376.446H365.237ZM417.51 365.93L324.189 230.352L313.638 215.02L246.883 118.038L241.35 110H159.321L179.327 139.072L268.086 268.036L278.637 283.353L349.953 386.973L355.487 395.001H437.517L417.51 365.93Z" fill="white"/>
<path d="M280.593 253.472L291.144 268.796L278.636 283.353L182.666 395.001H159L268.085 268.036L280.593 253.472Z" fill="white"/>
<path d="M427.639 110L324.189 230.352L311.681 244.901L301.131 229.577L313.637 215.02L383.716 133.454L403.974 110H427.639Z" fill="white"/>
</svg>
