<svg width="1254" height="314" viewBox="0 0 1254 314" fill="none" xmlns="http://www.w3.org/2000/svg">
<mask id="path-1-inside-1_161_1290" fill="white">
<path d="M175.526 10.6088C181.071 11.1921 185.594 12.5046 189.096 14.5461C190.847 51.8776 191.43 89.6466 190.847 127.853C190.263 165.768 187.929 203.537 183.843 241.16C181.509 260.409 174.213 276.741 161.957 290.157C149.701 303.573 133.067 311.302 112.057 313.344C99.8006 314.51 87.1066 313.927 73.975 311.594C60.8433 309.552 48.8789 305.761 38.0818 300.219C27.5765 294.386 18.6761 286.803 11.3808 277.471C4.37722 267.846 0.583629 256.326 0 242.91C0 204.412 0.437722 165.622 1.31317 126.541C2.18861 87.4592 2.33452 48.6694 1.75089 10.1714L1.31317 9.7339H1.75089C6.12811 9.7339 10.943 9.58806 16.1957 9.2964C21.7402 9.00475 27.2847 8.85892 32.8291 8.85892C38.3736 8.85892 43.7722 9.15058 49.0248 9.7339C54.2775 10.0255 59.0924 10.7547 63.4697 11.9213V12.3588C60.2597 82.9386 61.5729 154.539 67.4092 227.161C69.4519 234.16 73.0995 239.264 78.3522 242.472C83.8967 245.68 89.5871 247.139 95.4234 246.847C101.26 246.555 106.658 244.514 111.619 240.722C116.58 236.931 119.79 231.681 121.249 224.973C122.708 189.975 123.438 154.393 123.438 118.228C123.729 82.0636 124.313 47.0653 125.188 13.2337C128.982 12.9421 133.797 12.5046 139.633 11.9213C145.761 11.0463 151.889 10.463 158.018 10.1714C164.146 9.87972 169.982 10.0255 175.526 10.6088Z"/>
<path d="M402.215 45.6071C409.802 59.8981 411.553 77.9805 407.468 99.8544H407.03C396.816 101.604 385.873 102.771 374.201 103.354C362.528 103.646 351.585 102.333 341.372 99.4169C343.123 91.5423 341.518 84.9801 336.557 79.7304C331.596 74.4807 325.614 71.1267 318.61 69.6684C311.607 68.2101 304.749 68.9393 298.037 71.8558C291.617 74.7723 287.824 80.3137 286.656 88.48C286.073 90.5215 285.781 92.5631 285.781 94.6047C286.073 96.3546 286.365 98.2503 286.656 100.292C288.991 107.292 292.785 111.958 298.037 114.291C303.29 116.624 308.98 118.228 315.108 119.103C330.575 120.853 344.873 125.811 358.005 133.978C371.429 142.144 382.372 152.498 390.834 165.039C396.087 171.747 400.026 179.038 402.653 186.913C405.279 194.496 406.738 202.37 407.03 210.536C407.614 218.703 407.03 227.015 405.279 235.473C403.82 243.639 401.34 251.514 397.838 259.096C394.336 268.138 389.667 275.866 383.831 282.283C377.994 288.699 371.283 293.949 363.696 298.032C356.4 302.115 348.375 305.178 339.621 307.219C331.158 308.969 322.404 309.698 313.358 309.406C300.518 309.115 287.678 306.927 274.838 302.844C262.29 298.47 251.055 292.491 241.133 284.908C231.212 277.325 223.333 268.138 217.496 257.347C211.66 246.264 209.18 233.723 210.055 219.723V217.099C220.269 215.64 231.504 215.349 243.76 216.224C256.016 216.807 267.105 216.953 277.027 216.661C277.61 225.994 281.258 232.994 287.97 237.66C294.973 242.326 302.269 244.66 309.856 244.66C317.735 244.368 324.446 241.743 329.991 236.785C335.827 231.827 337.87 224.244 336.119 214.036C335.244 207.037 332.617 201.495 328.24 197.412C323.863 193.037 318.61 189.537 312.482 186.913C306.646 184.288 300.226 182.392 293.222 181.225C286.219 179.767 279.653 178.455 273.525 177.288C267.689 176.121 262.29 174.226 257.329 171.601C252.368 168.976 247.845 165.914 243.76 162.414C230.336 149.581 221.582 135.436 217.496 119.978C213.703 104.521 213.557 89.5007 217.059 74.9181C220.56 60.3355 227.126 47.0654 236.756 35.1076C246.678 23.1499 258.642 14.2545 272.649 8.42145C279.653 5.50493 287.386 3.60919 295.849 2.73423C304.311 1.56762 312.774 1.27597 321.236 1.85928C329.991 2.15093 338.454 3.31754 346.624 5.35909C355.087 7.40066 362.82 10.0255 369.824 13.2337C383.831 20.525 394.628 31.3161 402.215 45.6071Z"/>
<path d="M568.266 14.5461C577.02 21.2541 584.023 28.8371 589.276 37.295C595.696 47.2112 600.949 57.5648 605.034 68.356C609.411 78.8554 612.913 89.9382 615.539 101.604C616.999 106.271 617.874 110.937 618.166 115.604C618.749 119.978 619.187 124.499 619.479 129.165C618.895 142.873 618.312 156.727 617.728 170.726C617.436 184.434 615.977 197.995 613.351 211.411C613.351 211.703 613.205 211.849 612.913 211.849C612.913 211.849 612.913 211.995 612.913 212.286C607.077 229.494 599.052 245.826 588.838 261.284C578.917 276.741 568.411 291.324 557.322 305.032C538.063 305.615 518.657 306.052 499.105 306.344C479.554 306.344 460.586 306.344 442.202 306.344C442.202 306.344 442.056 306.49 441.764 306.782C438.554 283.741 436.511 259.971 435.636 235.473C434.76 210.682 434.323 185.6 434.323 160.226C434.323 134.853 434.469 109.333 434.76 83.6677C435.344 57.7107 435.344 32.0453 434.76 6.67154C435.052 6.37989 435.198 6.08824 435.198 5.79659C435.49 5.50492 435.782 5.21327 436.073 4.92162C444.244 2.88006 452.707 1.56763 461.461 0.984313C470.508 0.109368 479.554 -0.18228 488.6 0.109368C497.646 0.109368 506.547 0.255192 515.301 0.546841C524.347 0.838489 533.102 0.838489 541.564 0.546841C550.903 2.88006 559.803 7.5465 568.266 14.5461ZM542.878 203.974C545.212 201.349 547.255 198.724 549.006 196.1C553.967 188.517 557.468 180.205 559.511 171.163C561.846 162.122 561.846 152.206 559.511 141.415C558.636 137.04 557.614 132.519 556.447 127.853C555.28 122.895 553.529 118.228 551.194 113.854C549.152 109.479 546.525 105.687 543.315 102.479C540.105 98.9794 536.02 96.3546 531.059 94.6047C526.098 94.0214 520.7 93.7297 514.863 93.7297C509.027 93.4381 503.483 93.8755 498.23 95.0421H496.917V96.792C497.5 104.667 497.792 113.125 497.792 122.166C497.792 131.207 497.646 140.686 497.355 150.602C497.063 160.226 496.917 170.143 496.917 180.35C496.917 190.267 497.209 200.183 497.792 210.099C501.002 213.015 505.379 214.328 510.924 214.036C516.76 213.745 522.305 213.307 527.557 212.724C529.016 213.015 530.33 212.87 531.497 212.286C532.664 211.411 533.977 210.682 535.436 210.099C538.355 208.349 540.835 206.307 542.878 203.974Z"/>
<path d="M801.756 21.5458C810.218 29.1287 816.201 38.0241 819.702 48.232C821.745 52.6068 823.204 57.1274 824.08 61.7938C825.247 66.1686 826.122 70.6892 826.706 75.3556C827.29 82.6469 827.581 89.9382 827.581 97.2295C827.873 104.229 827.873 111.375 827.581 118.666C826.706 134.124 826.414 149.144 826.706 163.726C826.998 178.309 826.56 193.183 825.393 208.349L824.08 222.786C823.496 232.994 821.891 243.347 819.265 253.847C816.638 264.055 812.699 273.387 807.446 281.845C802.485 288.845 795.92 294.532 787.749 298.907C779.87 302.99 771.407 306.198 762.361 308.532C754.19 310.865 745.873 312.323 737.411 312.906C729.24 313.49 720.923 313.49 712.461 312.906C706.333 312.323 700.35 311.448 694.514 310.281C688.97 309.406 683.571 307.802 678.318 305.469C673.357 303.136 668.834 300.219 664.749 296.72C660.664 292.928 657.308 288.116 654.681 282.283C650.596 274.992 647.824 267.263 646.365 259.096C645.197 250.639 644.468 242.181 644.176 233.723C643.301 210.974 642.279 188.225 641.112 165.476C640.237 142.436 640.528 119.395 641.987 96.3546C642.279 83.2302 643.884 70.1059 646.802 56.9815C650.012 43.5655 656.14 31.7536 665.187 21.5458C668.105 18.6293 671.461 16.0044 675.254 13.6712C684.884 9.00476 695.244 5.65076 706.333 3.6092C717.713 1.27598 728.948 0.401017 740.037 0.984313C751.418 1.56763 762.361 3.60919 772.866 7.10901C783.663 10.3172 793.293 15.1295 801.756 21.5458ZM772.866 175.976V154.977L771.991 125.228C771.991 124.936 771.699 122.02 771.115 116.479C770.824 110.646 770.532 105.25 770.24 100.292C769.656 92.1256 767.322 84.6885 763.236 77.9805C759.443 71.2725 754.19 66.3144 747.478 63.1062C741.642 60.773 735.66 60.3355 729.532 61.7938C723.404 63.252 718.005 65.7311 713.336 69.2309C703.123 77.1055 696.265 87.1675 692.763 99.4169C690.429 110.5 688.97 122.166 688.386 134.415C688.094 146.665 688.24 158.914 688.824 171.163C690.283 181.371 691.304 191.871 691.888 202.662C692.471 213.161 694.222 223.223 697.14 232.848C700.059 238.681 704.29 243.201 709.834 246.41C715.379 249.618 721.361 251.514 727.781 252.097C734.201 252.388 740.621 251.514 747.041 249.472C753.461 247.139 758.859 243.493 763.236 238.535C765.863 235.035 767.759 232.264 768.927 230.223C770.094 227.89 770.824 225.411 771.115 222.786C771.407 220.161 771.407 217.099 771.115 213.599C771.115 209.807 771.407 204.849 771.991 198.724C772.283 192.891 772.429 187.788 772.429 183.413C772.72 179.038 772.866 176.559 772.866 175.976Z"/>
<path d="M945.503 155.414C945.503 155.414 945.795 155.268 946.379 154.977C950.172 152.643 956.3 151.331 964.763 151.039C973.517 150.456 982.709 150.31 992.339 150.602C1001.97 150.894 1010.87 151.477 1019.04 152.352C1027.5 152.935 1033.19 153.227 1036.11 153.227H1036.99L1037.42 153.664C1039.18 169.122 1040.34 185.6 1040.93 203.099C1041.51 220.307 1040.34 236.785 1037.42 252.534C1035.97 267.409 1031.44 278.783 1023.86 286.658C1016.27 294.532 1006.93 300.511 995.841 304.594C988.546 306.636 980.958 308.386 973.079 309.844C965.2 311.594 957.176 312.76 949.005 313.344C940.834 314.219 932.809 314.219 924.93 313.344C917.343 312.469 910.048 310.573 903.044 307.657C891.371 302.698 882.471 295.99 876.343 287.533C870.215 279.075 865.4 268.575 861.898 256.034C861.023 252.826 860.001 248.451 858.834 242.91C857.959 237.077 857.229 231.244 856.646 225.411C855.77 216.078 855.041 207.62 854.457 200.037C853.873 192.454 853.29 185.017 852.706 177.726C852.414 170.143 852.122 162.268 851.831 154.102C851.831 145.644 851.976 136.019 852.268 125.228C852.56 115.895 852.998 106.417 853.581 96.792C854.165 86.8759 855.186 77.2513 856.646 67.9185C858.105 58.294 860.585 48.9611 864.087 39.9199C867.88 30.8787 874.008 23.4415 882.471 17.6085C888.307 12.6504 894.873 9.00476 902.169 6.67154C909.464 4.33831 917.051 2.5884 924.93 1.42179C940.98 -0.61977 956.3 -0.0364647 970.891 3.1717C985.482 6.08822 998.03 11.4838 1008.53 19.3584C1019.04 27.233 1026.92 37.7325 1032.17 50.8568C1037.42 63.6895 1039.03 79.0013 1036.99 96.792L1036.55 99.4169C1035.97 100.292 1034.65 100.729 1032.61 100.729C1030.57 100.729 1027.21 100.875 1022.54 101.167C1018.16 101.167 1014.37 101.313 1011.16 101.604C1008.24 101.604 1005.18 101.604 1001.97 101.604C999.051 101.604 995.987 101.458 992.777 101.167C989.567 100.875 985.773 100.438 981.396 99.8544C980.521 96.9379 979.208 93.4381 977.457 89.3549C975.998 84.9801 973.955 81.0428 971.329 77.543C968.994 73.7515 966.222 70.5433 963.012 67.9185C959.802 65.002 956.008 63.5437 951.631 63.5437C946.67 63.2521 941.855 63.1062 937.186 63.1062C932.517 63.1062 928.432 64.8561 924.93 68.356C924.347 68.9393 923.471 70.5434 922.304 73.1682C921.428 75.5014 920.699 77.8347 920.115 80.1679C918.072 87.1675 916.322 95.6254 914.863 105.542C913.695 115.458 912.82 126.103 912.236 137.478C911.653 148.56 911.507 160.081 911.798 172.038C912.09 183.996 912.674 195.37 913.549 206.162C914.133 212.578 915.3 219.578 917.051 227.161C918.802 234.744 922.45 240.722 927.994 245.097C930.621 246.847 933.976 248.16 938.062 249.034C942.439 249.618 946.962 249.472 951.631 248.597C956.592 247.722 961.115 246.555 965.201 245.097C968.411 243.639 971.183 241.743 973.517 239.41C975.852 236.785 977.603 233.431 978.77 229.348C979.062 228.181 979.354 226.286 979.645 223.661C980.229 220.744 980.521 217.828 980.521 214.911C980.813 211.995 980.813 209.37 980.521 207.037C980.521 204.703 980.083 203.391 979.208 203.099C977.457 202.808 974.976 202.808 971.766 203.099C968.848 203.099 965.638 203.245 962.137 203.537C958.927 203.537 955.862 203.537 952.944 203.537C950.318 203.245 948.275 202.808 946.816 202.224C946.233 197.558 945.795 193.475 945.503 189.975C945.503 186.475 945.503 183.121 945.503 179.913C945.795 176.413 945.941 172.913 945.941 169.413C945.941 165.914 945.649 161.539 945.065 156.289V155.852C945.065 155.56 945.211 155.414 945.503 155.414Z"/>
<path d="M1195.64 247.285C1214.31 248.16 1233.57 248.305 1253.42 247.722V248.597C1254 257.93 1254.15 267.7 1253.85 277.908C1253.56 287.824 1252.25 297.157 1249.91 305.907C1220.15 305.615 1189.8 306.052 1158.87 307.219C1128.23 308.094 1098.75 307.365 1070.45 305.032C1070.45 279.658 1070.16 254.576 1069.57 229.785C1068.99 204.703 1068.55 179.767 1068.26 154.977C1067.97 130.186 1067.97 105.396 1068.26 80.6054C1068.55 55.8149 1069.43 30.8787 1070.89 5.79659C1082.27 5.21328 1094.52 4.77579 1107.65 4.48415C1121.08 3.90085 1134.5 3.46337 1147.93 3.1717C1161.35 2.88005 1174.33 2.58841 1186.88 2.29676C1199.43 2.00511 1210.52 1.85928 1220.15 1.85928C1229.78 1.85928 1237.51 2.00511 1243.35 2.29676C1249.19 2.58841 1252.1 2.88005 1252.1 3.1717C1253.56 13.3795 1253.85 23.7332 1252.98 34.2327C1252.4 44.7322 1252.1 55.0858 1252.1 65.2936V65.7311C1242.77 67.7727 1233.28 69.0851 1223.65 69.6684C1214.31 69.96 1204.83 70.1059 1195.2 70.1059C1185.57 69.8142 1175.94 69.6684 1166.31 69.6684C1156.68 69.6684 1147.05 70.1059 1137.42 70.9808H1136.11L1135.67 71.4183C1135.96 79.8762 1135.52 88.6258 1134.36 97.667C1133.48 106.417 1134.06 114.729 1136.11 122.603L1136.54 123.041C1145.3 123.624 1154.2 123.916 1163.25 123.916C1172.29 123.916 1181.34 124.062 1190.38 124.353V124.791C1191.84 134.707 1192.28 144.623 1191.7 154.539C1191.11 164.455 1190.97 174.809 1191.26 185.6C1186.88 186.767 1181.92 187.496 1176.38 187.788C1170.83 187.788 1165.43 187.788 1160.18 187.788C1155.22 187.788 1150.7 187.933 1146.61 188.225C1142.53 188.517 1139.75 189.246 1138.3 190.412C1136.84 198.87 1136.25 208.349 1136.54 218.848C1137.13 229.348 1137.71 238.098 1138.3 245.097L1138.73 245.535C1157.99 245.535 1176.96 246.118 1195.64 247.285Z"/>
</mask>
<path d="M175.526 10.6088C181.071 11.1921 185.594 12.5046 189.096 14.5461C190.847 51.8776 191.43 89.6466 190.847 127.853C190.263 165.768 187.929 203.537 183.843 241.16C181.509 260.409 174.213 276.741 161.957 290.157C149.701 303.573 133.067 311.302 112.057 313.344C99.8006 314.51 87.1066 313.927 73.975 311.594C60.8433 309.552 48.8789 305.761 38.0818 300.219C27.5765 294.386 18.6761 286.803 11.3808 277.471C4.37722 267.846 0.583629 256.326 0 242.91C0 204.412 0.437722 165.622 1.31317 126.541C2.18861 87.4592 2.33452 48.6694 1.75089 10.1714L1.31317 9.7339H1.75089C6.12811 9.7339 10.943 9.58806 16.1957 9.2964C21.7402 9.00475 27.2847 8.85892 32.8291 8.85892C38.3736 8.85892 43.7722 9.15058 49.0248 9.7339C54.2775 10.0255 59.0924 10.7547 63.4697 11.9213V12.3588C60.2597 82.9386 61.5729 154.539 67.4092 227.161C69.4519 234.16 73.0995 239.264 78.3522 242.472C83.8967 245.68 89.5871 247.139 95.4234 246.847C101.26 246.555 106.658 244.514 111.619 240.722C116.58 236.931 119.79 231.681 121.249 224.973C122.708 189.975 123.438 154.393 123.438 118.228C123.729 82.0636 124.313 47.0653 125.188 13.2337C128.982 12.9421 133.797 12.5046 139.633 11.9213C145.761 11.0463 151.889 10.463 158.018 10.1714C164.146 9.87972 169.982 10.0255 175.526 10.6088Z" fill="#D51E25"/>
<path d="M402.215 45.6071C409.802 59.8981 411.553 77.9805 407.468 99.8544H407.03C396.816 101.604 385.873 102.771 374.201 103.354C362.528 103.646 351.585 102.333 341.372 99.4169C343.123 91.5423 341.518 84.9801 336.557 79.7304C331.596 74.4807 325.614 71.1267 318.61 69.6684C311.607 68.2101 304.749 68.9393 298.037 71.8558C291.617 74.7723 287.824 80.3137 286.656 88.48C286.073 90.5215 285.781 92.5631 285.781 94.6047C286.073 96.3546 286.365 98.2503 286.656 100.292C288.991 107.292 292.785 111.958 298.037 114.291C303.29 116.624 308.98 118.228 315.108 119.103C330.575 120.853 344.873 125.811 358.005 133.978C371.429 142.144 382.372 152.498 390.834 165.039C396.087 171.747 400.026 179.038 402.653 186.913C405.279 194.496 406.738 202.37 407.03 210.536C407.614 218.703 407.03 227.015 405.279 235.473C403.82 243.639 401.34 251.514 397.838 259.096C394.336 268.138 389.667 275.866 383.831 282.283C377.994 288.699 371.283 293.949 363.696 298.032C356.4 302.115 348.375 305.178 339.621 307.219C331.158 308.969 322.404 309.698 313.358 309.406C300.518 309.115 287.678 306.927 274.838 302.844C262.29 298.47 251.055 292.491 241.133 284.908C231.212 277.325 223.333 268.138 217.496 257.347C211.66 246.264 209.18 233.723 210.055 219.723V217.099C220.269 215.64 231.504 215.349 243.76 216.224C256.016 216.807 267.105 216.953 277.027 216.661C277.61 225.994 281.258 232.994 287.97 237.66C294.973 242.326 302.269 244.66 309.856 244.66C317.735 244.368 324.446 241.743 329.991 236.785C335.827 231.827 337.87 224.244 336.119 214.036C335.244 207.037 332.617 201.495 328.24 197.412C323.863 193.037 318.61 189.537 312.482 186.913C306.646 184.288 300.226 182.392 293.222 181.225C286.219 179.767 279.653 178.455 273.525 177.288C267.689 176.121 262.29 174.226 257.329 171.601C252.368 168.976 247.845 165.914 243.76 162.414C230.336 149.581 221.582 135.436 217.496 119.978C213.703 104.521 213.557 89.5007 217.059 74.9181C220.56 60.3355 227.126 47.0654 236.756 35.1076C246.678 23.1499 258.642 14.2545 272.649 8.42145C279.653 5.50493 287.386 3.60919 295.849 2.73423C304.311 1.56762 312.774 1.27597 321.236 1.85928C329.991 2.15093 338.454 3.31754 346.624 5.35909C355.087 7.40066 362.82 10.0255 369.824 13.2337C383.831 20.525 394.628 31.3161 402.215 45.6071Z" fill="#D51E25"/>
<path d="M568.266 14.5461C577.02 21.2541 584.023 28.8371 589.276 37.295C595.696 47.2112 600.949 57.5648 605.034 68.356C609.411 78.8554 612.913 89.9382 615.539 101.604C616.999 106.271 617.874 110.937 618.166 115.604C618.749 119.978 619.187 124.499 619.479 129.165C618.895 142.873 618.312 156.727 617.728 170.726C617.436 184.434 615.977 197.995 613.351 211.411C613.351 211.703 613.205 211.849 612.913 211.849C612.913 211.849 612.913 211.995 612.913 212.286C607.077 229.494 599.052 245.826 588.838 261.284C578.917 276.741 568.411 291.324 557.322 305.032C538.063 305.615 518.657 306.052 499.105 306.344C479.554 306.344 460.586 306.344 442.202 306.344C442.202 306.344 442.056 306.49 441.764 306.782C438.554 283.741 436.511 259.971 435.636 235.473C434.76 210.682 434.323 185.6 434.323 160.226C434.323 134.853 434.469 109.333 434.76 83.6677C435.344 57.7107 435.344 32.0453 434.76 6.67154C435.052 6.37989 435.198 6.08824 435.198 5.79659C435.49 5.50492 435.782 5.21327 436.073 4.92162C444.244 2.88006 452.707 1.56763 461.461 0.984313C470.508 0.109368 479.554 -0.18228 488.6 0.109368C497.646 0.109368 506.547 0.255192 515.301 0.546841C524.347 0.838489 533.102 0.838489 541.564 0.546841C550.903 2.88006 559.803 7.5465 568.266 14.5461ZM542.878 203.974C545.212 201.349 547.255 198.724 549.006 196.1C553.967 188.517 557.468 180.205 559.511 171.163C561.846 162.122 561.846 152.206 559.511 141.415C558.636 137.04 557.614 132.519 556.447 127.853C555.28 122.895 553.529 118.228 551.194 113.854C549.152 109.479 546.525 105.687 543.315 102.479C540.105 98.9794 536.02 96.3546 531.059 94.6047C526.098 94.0214 520.7 93.7297 514.863 93.7297C509.027 93.4381 503.483 93.8755 498.23 95.0421H496.917V96.792C497.5 104.667 497.792 113.125 497.792 122.166C497.792 131.207 497.646 140.686 497.355 150.602C497.063 160.226 496.917 170.143 496.917 180.35C496.917 190.267 497.209 200.183 497.792 210.099C501.002 213.015 505.379 214.328 510.924 214.036C516.76 213.745 522.305 213.307 527.557 212.724C529.016 213.015 530.33 212.87 531.497 212.286C532.664 211.411 533.977 210.682 535.436 210.099C538.355 208.349 540.835 206.307 542.878 203.974Z" fill="#D51E25"/>
<path d="M801.756 21.5458C810.218 29.1287 816.201 38.0241 819.702 48.232C821.745 52.6068 823.204 57.1274 824.08 61.7938C825.247 66.1686 826.122 70.6892 826.706 75.3556C827.29 82.6469 827.581 89.9382 827.581 97.2295C827.873 104.229 827.873 111.375 827.581 118.666C826.706 134.124 826.414 149.144 826.706 163.726C826.998 178.309 826.56 193.183 825.393 208.349L824.08 222.786C823.496 232.994 821.891 243.347 819.265 253.847C816.638 264.055 812.699 273.387 807.446 281.845C802.485 288.845 795.92 294.532 787.749 298.907C779.87 302.99 771.407 306.198 762.361 308.532C754.19 310.865 745.873 312.323 737.411 312.906C729.24 313.49 720.923 313.49 712.461 312.906C706.333 312.323 700.35 311.448 694.514 310.281C688.97 309.406 683.571 307.802 678.318 305.469C673.357 303.136 668.834 300.219 664.749 296.72C660.664 292.928 657.308 288.116 654.681 282.283C650.596 274.992 647.824 267.263 646.365 259.096C645.197 250.639 644.468 242.181 644.176 233.723C643.301 210.974 642.279 188.225 641.112 165.476C640.237 142.436 640.528 119.395 641.987 96.3546C642.279 83.2302 643.884 70.1059 646.802 56.9815C650.012 43.5655 656.14 31.7536 665.187 21.5458C668.105 18.6293 671.461 16.0044 675.254 13.6712C684.884 9.00476 695.244 5.65076 706.333 3.6092C717.713 1.27598 728.948 0.401017 740.037 0.984313C751.418 1.56763 762.361 3.60919 772.866 7.10901C783.663 10.3172 793.293 15.1295 801.756 21.5458ZM772.866 175.976V154.977L771.991 125.228C771.991 124.936 771.699 122.02 771.115 116.479C770.824 110.646 770.532 105.25 770.24 100.292C769.656 92.1256 767.322 84.6885 763.236 77.9805C759.443 71.2725 754.19 66.3144 747.478 63.1062C741.642 60.773 735.66 60.3355 729.532 61.7938C723.404 63.252 718.005 65.7311 713.336 69.2309C703.123 77.1055 696.265 87.1675 692.763 99.4169C690.429 110.5 688.97 122.166 688.386 134.415C688.094 146.665 688.24 158.914 688.824 171.163C690.283 181.371 691.304 191.871 691.888 202.662C692.471 213.161 694.222 223.223 697.14 232.848C700.059 238.681 704.29 243.201 709.834 246.41C715.379 249.618 721.361 251.514 727.781 252.097C734.201 252.388 740.621 251.514 747.041 249.472C753.461 247.139 758.859 243.493 763.236 238.535C765.863 235.035 767.759 232.264 768.927 230.223C770.094 227.89 770.824 225.411 771.115 222.786C771.407 220.161 771.407 217.099 771.115 213.599C771.115 209.807 771.407 204.849 771.991 198.724C772.283 192.891 772.429 187.788 772.429 183.413C772.72 179.038 772.866 176.559 772.866 175.976Z" fill="#D51E25"/>
<path d="M945.503 155.414C945.503 155.414 945.795 155.268 946.379 154.977C950.172 152.643 956.3 151.331 964.763 151.039C973.517 150.456 982.709 150.31 992.339 150.602C1001.97 150.894 1010.87 151.477 1019.04 152.352C1027.5 152.935 1033.19 153.227 1036.11 153.227H1036.99L1037.42 153.664C1039.18 169.122 1040.34 185.6 1040.93 203.099C1041.51 220.307 1040.34 236.785 1037.42 252.534C1035.97 267.409 1031.44 278.783 1023.86 286.658C1016.27 294.532 1006.93 300.511 995.841 304.594C988.546 306.636 980.958 308.386 973.079 309.844C965.2 311.594 957.176 312.76 949.005 313.344C940.834 314.219 932.809 314.219 924.93 313.344C917.343 312.469 910.048 310.573 903.044 307.657C891.371 302.698 882.471 295.99 876.343 287.533C870.215 279.075 865.4 268.575 861.898 256.034C861.023 252.826 860.001 248.451 858.834 242.91C857.959 237.077 857.229 231.244 856.646 225.411C855.77 216.078 855.041 207.62 854.457 200.037C853.873 192.454 853.29 185.017 852.706 177.726C852.414 170.143 852.122 162.268 851.831 154.102C851.831 145.644 851.976 136.019 852.268 125.228C852.56 115.895 852.998 106.417 853.581 96.792C854.165 86.8759 855.186 77.2513 856.646 67.9185C858.105 58.294 860.585 48.9611 864.087 39.9199C867.88 30.8787 874.008 23.4415 882.471 17.6085C888.307 12.6504 894.873 9.00476 902.169 6.67154C909.464 4.33831 917.051 2.5884 924.93 1.42179C940.98 -0.61977 956.3 -0.0364647 970.891 3.1717C985.482 6.08822 998.03 11.4838 1008.53 19.3584C1019.04 27.233 1026.92 37.7325 1032.17 50.8568C1037.42 63.6895 1039.03 79.0013 1036.99 96.792L1036.55 99.4169C1035.97 100.292 1034.65 100.729 1032.61 100.729C1030.57 100.729 1027.21 100.875 1022.54 101.167C1018.16 101.167 1014.37 101.313 1011.16 101.604C1008.24 101.604 1005.18 101.604 1001.97 101.604C999.051 101.604 995.987 101.458 992.777 101.167C989.567 100.875 985.773 100.438 981.396 99.8544C980.521 96.9379 979.208 93.4381 977.457 89.3549C975.998 84.9801 973.955 81.0428 971.329 77.543C968.994 73.7515 966.222 70.5433 963.012 67.9185C959.802 65.002 956.008 63.5437 951.631 63.5437C946.67 63.2521 941.855 63.1062 937.186 63.1062C932.517 63.1062 928.432 64.8561 924.93 68.356C924.347 68.9393 923.471 70.5434 922.304 73.1682C921.428 75.5014 920.699 77.8347 920.115 80.1679C918.072 87.1675 916.322 95.6254 914.863 105.542C913.695 115.458 912.82 126.103 912.236 137.478C911.653 148.56 911.507 160.081 911.798 172.038C912.09 183.996 912.674 195.37 913.549 206.162C914.133 212.578 915.3 219.578 917.051 227.161C918.802 234.744 922.45 240.722 927.994 245.097C930.621 246.847 933.976 248.16 938.062 249.034C942.439 249.618 946.962 249.472 951.631 248.597C956.592 247.722 961.115 246.555 965.201 245.097C968.411 243.639 971.183 241.743 973.517 239.41C975.852 236.785 977.603 233.431 978.77 229.348C979.062 228.181 979.354 226.286 979.645 223.661C980.229 220.744 980.521 217.828 980.521 214.911C980.813 211.995 980.813 209.37 980.521 207.037C980.521 204.703 980.083 203.391 979.208 203.099C977.457 202.808 974.976 202.808 971.766 203.099C968.848 203.099 965.638 203.245 962.137 203.537C958.927 203.537 955.862 203.537 952.944 203.537C950.318 203.245 948.275 202.808 946.816 202.224C946.233 197.558 945.795 193.475 945.503 189.975C945.503 186.475 945.503 183.121 945.503 179.913C945.795 176.413 945.941 172.913 945.941 169.413C945.941 165.914 945.649 161.539 945.065 156.289V155.852C945.065 155.56 945.211 155.414 945.503 155.414Z" fill="#D51E25"/>
<path d="M1195.64 247.285C1214.31 248.16 1233.57 248.305 1253.42 247.722V248.597C1254 257.93 1254.15 267.7 1253.85 277.908C1253.56 287.824 1252.25 297.157 1249.91 305.907C1220.15 305.615 1189.8 306.052 1158.87 307.219C1128.23 308.094 1098.75 307.365 1070.45 305.032C1070.45 279.658 1070.16 254.576 1069.57 229.785C1068.99 204.703 1068.55 179.767 1068.26 154.977C1067.97 130.186 1067.97 105.396 1068.26 80.6054C1068.55 55.8149 1069.43 30.8787 1070.89 5.79659C1082.27 5.21328 1094.52 4.77579 1107.65 4.48415C1121.08 3.90085 1134.5 3.46337 1147.93 3.1717C1161.35 2.88005 1174.33 2.58841 1186.88 2.29676C1199.43 2.00511 1210.52 1.85928 1220.15 1.85928C1229.78 1.85928 1237.51 2.00511 1243.35 2.29676C1249.19 2.58841 1252.1 2.88005 1252.1 3.1717C1253.56 13.3795 1253.85 23.7332 1252.98 34.2327C1252.4 44.7322 1252.1 55.0858 1252.1 65.2936V65.7311C1242.77 67.7727 1233.28 69.0851 1223.65 69.6684C1214.31 69.96 1204.83 70.1059 1195.2 70.1059C1185.57 69.8142 1175.94 69.6684 1166.31 69.6684C1156.68 69.6684 1147.05 70.1059 1137.42 70.9808H1136.11L1135.67 71.4183C1135.96 79.8762 1135.52 88.6258 1134.36 97.667C1133.48 106.417 1134.06 114.729 1136.11 122.603L1136.54 123.041C1145.3 123.624 1154.2 123.916 1163.25 123.916C1172.29 123.916 1181.34 124.062 1190.38 124.353V124.791C1191.84 134.707 1192.28 144.623 1191.7 154.539C1191.11 164.455 1190.97 174.809 1191.26 185.6C1186.88 186.767 1181.92 187.496 1176.38 187.788C1170.83 187.788 1165.43 187.788 1160.18 187.788C1155.22 187.788 1150.7 187.933 1146.61 188.225C1142.53 188.517 1139.75 189.246 1138.3 190.412C1136.84 198.87 1136.25 208.349 1136.54 218.848C1137.13 229.348 1137.71 238.098 1138.3 245.097L1138.73 245.535C1157.99 245.535 1176.96 246.118 1195.64 247.285Z" fill="#D51E25"/>
<path d="M175.526 10.6088C181.071 11.1921 185.594 12.5046 189.096 14.5461C190.847 51.8776 191.43 89.6466 190.847 127.853C190.263 165.768 187.929 203.537 183.843 241.16C181.509 260.409 174.213 276.741 161.957 290.157C149.701 303.573 133.067 311.302 112.057 313.344C99.8006 314.51 87.1066 313.927 73.975 311.594C60.8433 309.552 48.8789 305.761 38.0818 300.219C27.5765 294.386 18.6761 286.803 11.3808 277.471C4.37722 267.846 0.583629 256.326 0 242.91C0 204.412 0.437722 165.622 1.31317 126.541C2.18861 87.4592 2.33452 48.6694 1.75089 10.1714L1.31317 9.7339H1.75089C6.12811 9.7339 10.943 9.58806 16.1957 9.2964C21.7402 9.00475 27.2847 8.85892 32.8291 8.85892C38.3736 8.85892 43.7722 9.15058 49.0248 9.7339C54.2775 10.0255 59.0924 10.7547 63.4697 11.9213V12.3588C60.2597 82.9386 61.5729 154.539 67.4092 227.161C69.4519 234.16 73.0995 239.264 78.3522 242.472C83.8967 245.68 89.5871 247.139 95.4234 246.847C101.26 246.555 106.658 244.514 111.619 240.722C116.58 236.931 119.79 231.681 121.249 224.973C122.708 189.975 123.438 154.393 123.438 118.228C123.729 82.0636 124.313 47.0653 125.188 13.2337C128.982 12.9421 133.797 12.5046 139.633 11.9213C145.761 11.0463 151.889 10.463 158.018 10.1714C164.146 9.87972 169.982 10.0255 175.526 10.6088Z" stroke="white" stroke-width="24" mask="url(#path-1-inside-1_161_1290)"/>
<path d="M402.215 45.6071C409.802 59.8981 411.553 77.9805 407.468 99.8544H407.03C396.816 101.604 385.873 102.771 374.201 103.354C362.528 103.646 351.585 102.333 341.372 99.4169C343.123 91.5423 341.518 84.9801 336.557 79.7304C331.596 74.4807 325.614 71.1267 318.61 69.6684C311.607 68.2101 304.749 68.9393 298.037 71.8558C291.617 74.7723 287.824 80.3137 286.656 88.48C286.073 90.5215 285.781 92.5631 285.781 94.6047C286.073 96.3546 286.365 98.2503 286.656 100.292C288.991 107.292 292.785 111.958 298.037 114.291C303.29 116.624 308.98 118.228 315.108 119.103C330.575 120.853 344.873 125.811 358.005 133.978C371.429 142.144 382.372 152.498 390.834 165.039C396.087 171.747 400.026 179.038 402.653 186.913C405.279 194.496 406.738 202.37 407.03 210.536C407.614 218.703 407.03 227.015 405.279 235.473C403.82 243.639 401.34 251.514 397.838 259.096C394.336 268.138 389.667 275.866 383.831 282.283C377.994 288.699 371.283 293.949 363.696 298.032C356.4 302.115 348.375 305.178 339.621 307.219C331.158 308.969 322.404 309.698 313.358 309.406C300.518 309.115 287.678 306.927 274.838 302.844C262.29 298.47 251.055 292.491 241.133 284.908C231.212 277.325 223.333 268.138 217.496 257.347C211.66 246.264 209.18 233.723 210.055 219.723V217.099C220.269 215.64 231.504 215.349 243.76 216.224C256.016 216.807 267.105 216.953 277.027 216.661C277.61 225.994 281.258 232.994 287.97 237.66C294.973 242.326 302.269 244.66 309.856 244.66C317.735 244.368 324.446 241.743 329.991 236.785C335.827 231.827 337.87 224.244 336.119 214.036C335.244 207.037 332.617 201.495 328.24 197.412C323.863 193.037 318.61 189.537 312.482 186.913C306.646 184.288 300.226 182.392 293.222 181.225C286.219 179.767 279.653 178.455 273.525 177.288C267.689 176.121 262.29 174.226 257.329 171.601C252.368 168.976 247.845 165.914 243.76 162.414C230.336 149.581 221.582 135.436 217.496 119.978C213.703 104.521 213.557 89.5007 217.059 74.9181C220.56 60.3355 227.126 47.0654 236.756 35.1076C246.678 23.1499 258.642 14.2545 272.649 8.42145C279.653 5.50493 287.386 3.60919 295.849 2.73423C304.311 1.56762 312.774 1.27597 321.236 1.85928C329.991 2.15093 338.454 3.31754 346.624 5.35909C355.087 7.40066 362.82 10.0255 369.824 13.2337C383.831 20.525 394.628 31.3161 402.215 45.6071Z" stroke="white" stroke-width="24" mask="url(#path-1-inside-1_161_1290)"/>
<path d="M568.266 14.5461C577.02 21.2541 584.023 28.8371 589.276 37.295C595.696 47.2112 600.949 57.5648 605.034 68.356C609.411 78.8554 612.913 89.9382 615.539 101.604C616.999 106.271 617.874 110.937 618.166 115.604C618.749 119.978 619.187 124.499 619.479 129.165C618.895 142.873 618.312 156.727 617.728 170.726C617.436 184.434 615.977 197.995 613.351 211.411C613.351 211.703 613.205 211.849 612.913 211.849C612.913 211.849 612.913 211.995 612.913 212.286C607.077 229.494 599.052 245.826 588.838 261.284C578.917 276.741 568.411 291.324 557.322 305.032C538.063 305.615 518.657 306.052 499.105 306.344C479.554 306.344 460.586 306.344 442.202 306.344C442.202 306.344 442.056 306.49 441.764 306.782C438.554 283.741 436.511 259.971 435.636 235.473C434.76 210.682 434.323 185.6 434.323 160.226C434.323 134.853 434.469 109.333 434.76 83.6677C435.344 57.7107 435.344 32.0453 434.76 6.67154C435.052 6.37989 435.198 6.08824 435.198 5.79659C435.49 5.50492 435.782 5.21327 436.073 4.92162C444.244 2.88006 452.707 1.56763 461.461 0.984313C470.508 0.109368 479.554 -0.18228 488.6 0.109368C497.646 0.109368 506.547 0.255192 515.301 0.546841C524.347 0.838489 533.102 0.838489 541.564 0.546841C550.903 2.88006 559.803 7.5465 568.266 14.5461ZM542.878 203.974C545.212 201.349 547.255 198.724 549.006 196.1C553.967 188.517 557.468 180.205 559.511 171.163C561.846 162.122 561.846 152.206 559.511 141.415C558.636 137.04 557.614 132.519 556.447 127.853C555.28 122.895 553.529 118.228 551.194 113.854C549.152 109.479 546.525 105.687 543.315 102.479C540.105 98.9794 536.02 96.3546 531.059 94.6047C526.098 94.0214 520.7 93.7297 514.863 93.7297C509.027 93.4381 503.483 93.8755 498.23 95.0421H496.917V96.792C497.5 104.667 497.792 113.125 497.792 122.166C497.792 131.207 497.646 140.686 497.355 150.602C497.063 160.226 496.917 170.143 496.917 180.35C496.917 190.267 497.209 200.183 497.792 210.099C501.002 213.015 505.379 214.328 510.924 214.036C516.76 213.745 522.305 213.307 527.557 212.724C529.016 213.015 530.33 212.87 531.497 212.286C532.664 211.411 533.977 210.682 535.436 210.099C538.355 208.349 540.835 206.307 542.878 203.974Z" stroke="white" stroke-width="24" mask="url(#path-1-inside-1_161_1290)"/>
<path d="M801.756 21.5458C810.218 29.1287 816.201 38.0241 819.702 48.232C821.745 52.6068 823.204 57.1274 824.08 61.7938C825.247 66.1686 826.122 70.6892 826.706 75.3556C827.29 82.6469 827.581 89.9382 827.581 97.2295C827.873 104.229 827.873 111.375 827.581 118.666C826.706 134.124 826.414 149.144 826.706 163.726C826.998 178.309 826.56 193.183 825.393 208.349L824.08 222.786C823.496 232.994 821.891 243.347 819.265 253.847C816.638 264.055 812.699 273.387 807.446 281.845C802.485 288.845 795.92 294.532 787.749 298.907C779.87 302.99 771.407 306.198 762.361 308.532C754.19 310.865 745.873 312.323 737.411 312.906C729.24 313.49 720.923 313.49 712.461 312.906C706.333 312.323 700.35 311.448 694.514 310.281C688.97 309.406 683.571 307.802 678.318 305.469C673.357 303.136 668.834 300.219 664.749 296.72C660.664 292.928 657.308 288.116 654.681 282.283C650.596 274.992 647.824 267.263 646.365 259.096C645.197 250.639 644.468 242.181 644.176 233.723C643.301 210.974 642.279 188.225 641.112 165.476C640.237 142.436 640.528 119.395 641.987 96.3546C642.279 83.2302 643.884 70.1059 646.802 56.9815C650.012 43.5655 656.14 31.7536 665.187 21.5458C668.105 18.6293 671.461 16.0044 675.254 13.6712C684.884 9.00476 695.244 5.65076 706.333 3.6092C717.713 1.27598 728.948 0.401017 740.037 0.984313C751.418 1.56763 762.361 3.60919 772.866 7.10901C783.663 10.3172 793.293 15.1295 801.756 21.5458ZM772.866 175.976V154.977L771.991 125.228C771.991 124.936 771.699 122.02 771.115 116.479C770.824 110.646 770.532 105.25 770.24 100.292C769.656 92.1256 767.322 84.6885 763.236 77.9805C759.443 71.2725 754.19 66.3144 747.478 63.1062C741.642 60.773 735.66 60.3355 729.532 61.7938C723.404 63.252 718.005 65.7311 713.336 69.2309C703.123 77.1055 696.265 87.1675 692.763 99.4169C690.429 110.5 688.97 122.166 688.386 134.415C688.094 146.665 688.24 158.914 688.824 171.163C690.283 181.371 691.304 191.871 691.888 202.662C692.471 213.161 694.222 223.223 697.14 232.848C700.059 238.681 704.29 243.201 709.834 246.41C715.379 249.618 721.361 251.514 727.781 252.097C734.201 252.388 740.621 251.514 747.041 249.472C753.461 247.139 758.859 243.493 763.236 238.535C765.863 235.035 767.759 232.264 768.927 230.223C770.094 227.89 770.824 225.411 771.115 222.786C771.407 220.161 771.407 217.099 771.115 213.599C771.115 209.807 771.407 204.849 771.991 198.724C772.283 192.891 772.429 187.788 772.429 183.413C772.72 179.038 772.866 176.559 772.866 175.976Z" stroke="white" stroke-width="24" mask="url(#path-1-inside-1_161_1290)"/>
<path d="M945.503 155.414C945.503 155.414 945.795 155.268 946.379 154.977C950.172 152.643 956.3 151.331 964.763 151.039C973.517 150.456 982.709 150.31 992.339 150.602C1001.97 150.894 1010.87 151.477 1019.04 152.352C1027.5 152.935 1033.19 153.227 1036.11 153.227H1036.99L1037.42 153.664C1039.18 169.122 1040.34 185.6 1040.93 203.099C1041.51 220.307 1040.34 236.785 1037.42 252.534C1035.97 267.409 1031.44 278.783 1023.86 286.658C1016.27 294.532 1006.93 300.511 995.841 304.594C988.546 306.636 980.958 308.386 973.079 309.844C965.2 311.594 957.176 312.76 949.005 313.344C940.834 314.219 932.809 314.219 924.93 313.344C917.343 312.469 910.048 310.573 903.044 307.657C891.371 302.698 882.471 295.99 876.343 287.533C870.215 279.075 865.4 268.575 861.898 256.034C861.023 252.826 860.001 248.451 858.834 242.91C857.959 237.077 857.229 231.244 856.646 225.411C855.77 216.078 855.041 207.62 854.457 200.037C853.873 192.454 853.29 185.017 852.706 177.726C852.414 170.143 852.122 162.268 851.831 154.102C851.831 145.644 851.976 136.019 852.268 125.228C852.56 115.895 852.998 106.417 853.581 96.792C854.165 86.8759 855.186 77.2513 856.646 67.9185C858.105 58.294 860.585 48.9611 864.087 39.9199C867.88 30.8787 874.008 23.4415 882.471 17.6085C888.307 12.6504 894.873 9.00476 902.169 6.67154C909.464 4.33831 917.051 2.5884 924.93 1.42179C940.98 -0.61977 956.3 -0.0364647 970.891 3.1717C985.482 6.08822 998.03 11.4838 1008.53 19.3584C1019.04 27.233 1026.92 37.7325 1032.17 50.8568C1037.42 63.6895 1039.03 79.0013 1036.99 96.792L1036.55 99.4169C1035.97 100.292 1034.65 100.729 1032.61 100.729C1030.57 100.729 1027.21 100.875 1022.54 101.167C1018.16 101.167 1014.37 101.313 1011.16 101.604C1008.24 101.604 1005.18 101.604 1001.97 101.604C999.051 101.604 995.987 101.458 992.777 101.167C989.567 100.875 985.773 100.438 981.396 99.8544C980.521 96.9379 979.208 93.4381 977.457 89.3549C975.998 84.9801 973.955 81.0428 971.329 77.543C968.994 73.7515 966.222 70.5433 963.012 67.9185C959.802 65.002 956.008 63.5437 951.631 63.5437C946.67 63.2521 941.855 63.1062 937.186 63.1062C932.517 63.1062 928.432 64.8561 924.93 68.356C924.347 68.9393 923.471 70.5434 922.304 73.1682C921.428 75.5014 920.699 77.8347 920.115 80.1679C918.072 87.1675 916.322 95.6254 914.863 105.542C913.695 115.458 912.82 126.103 912.236 137.478C911.653 148.56 911.507 160.081 911.798 172.038C912.09 183.996 912.674 195.37 913.549 206.162C914.133 212.578 915.3 219.578 917.051 227.161C918.802 234.744 922.45 240.722 927.994 245.097C930.621 246.847 933.976 248.16 938.062 249.034C942.439 249.618 946.962 249.472 951.631 248.597C956.592 247.722 961.115 246.555 965.201 245.097C968.411 243.639 971.183 241.743 973.517 239.41C975.852 236.785 977.603 233.431 978.77 229.348C979.062 228.181 979.354 226.286 979.645 223.661C980.229 220.744 980.521 217.828 980.521 214.911C980.813 211.995 980.813 209.37 980.521 207.037C980.521 204.703 980.083 203.391 979.208 203.099C977.457 202.808 974.976 202.808 971.766 203.099C968.848 203.099 965.638 203.245 962.137 203.537C958.927 203.537 955.862 203.537 952.944 203.537C950.318 203.245 948.275 202.808 946.816 202.224C946.233 197.558 945.795 193.475 945.503 189.975C945.503 186.475 945.503 183.121 945.503 179.913C945.795 176.413 945.941 172.913 945.941 169.413C945.941 165.914 945.649 161.539 945.065 156.289V155.852C945.065 155.56 945.211 155.414 945.503 155.414Z" stroke="white" stroke-width="24" mask="url(#path-1-inside-1_161_1290)"/>
<path d="M1195.64 247.285C1214.31 248.16 1233.57 248.305 1253.42 247.722V248.597C1254 257.93 1254.15 267.7 1253.85 277.908C1253.56 287.824 1252.25 297.157 1249.91 305.907C1220.15 305.615 1189.8 306.052 1158.87 307.219C1128.23 308.094 1098.75 307.365 1070.45 305.032C1070.45 279.658 1070.16 254.576 1069.57 229.785C1068.99 204.703 1068.55 179.767 1068.26 154.977C1067.97 130.186 1067.97 105.396 1068.26 80.6054C1068.55 55.8149 1069.43 30.8787 1070.89 5.79659C1082.27 5.21328 1094.52 4.77579 1107.65 4.48415C1121.08 3.90085 1134.5 3.46337 1147.93 3.1717C1161.35 2.88005 1174.33 2.58841 1186.88 2.29676C1199.43 2.00511 1210.52 1.85928 1220.15 1.85928C1229.78 1.85928 1237.51 2.00511 1243.35 2.29676C1249.19 2.58841 1252.1 2.88005 1252.1 3.1717C1253.56 13.3795 1253.85 23.7332 1252.98 34.2327C1252.4 44.7322 1252.1 55.0858 1252.1 65.2936V65.7311C1242.77 67.7727 1233.28 69.0851 1223.65 69.6684C1214.31 69.96 1204.83 70.1059 1195.2 70.1059C1185.57 69.8142 1175.94 69.6684 1166.31 69.6684C1156.68 69.6684 1147.05 70.1059 1137.42 70.9808H1136.11L1135.67 71.4183C1135.96 79.8762 1135.52 88.6258 1134.36 97.667C1133.48 106.417 1134.06 114.729 1136.11 122.603L1136.54 123.041C1145.3 123.624 1154.2 123.916 1163.25 123.916C1172.29 123.916 1181.34 124.062 1190.38 124.353V124.791C1191.84 134.707 1192.28 144.623 1191.7 154.539C1191.11 164.455 1190.97 174.809 1191.26 185.6C1186.88 186.767 1181.92 187.496 1176.38 187.788C1170.83 187.788 1165.43 187.788 1160.18 187.788C1155.22 187.788 1150.7 187.933 1146.61 188.225C1142.53 188.517 1139.75 189.246 1138.3 190.412C1136.84 198.87 1136.25 208.349 1136.54 218.848C1137.13 229.348 1137.71 238.098 1138.3 245.097L1138.73 245.535C1157.99 245.535 1176.96 246.118 1195.64 247.285Z" stroke="white" stroke-width="24" mask="url(#path-1-inside-1_161_1290)"/>
</svg>
